<svg id="Layer_1" data-name="Layer 1" xmlns="http://www.w3.org/2000/svg" viewBox="0 0 122.42 106.75"><defs><style>.cls-1{fill:#15346b;}</style></defs><path class="cls-1" d="M85.3,71.89c2.17.84,4.07,1.59,6,2.32,4.06,1.55,8.14,3.05,12.17,4.66a11.64,11.64,0,0,0,5.29,1,2.62,2.62,0,0,1,1.54.11,2.2,2.2,0,0,1,1,1.45,1.62,1.62,0,0,1-1.11,1.18c-1.93,0-3.93.61-5.77-.81-1.14-.89-2.52-.49-3.77.25a4,4,0,0,1-1.94.62q-18,.06-36,0a4.75,4.75,0,0,1-2.2-.7,3.58,3.58,0,0,0-4.16.1c-1.45,1.09-3,.57-4.53.47-.33,0-.82-.73-.85-1.16s.39-.88.69-1.27a.85.85,0,0,1,.66-.22c3.52.46,6.5-1.26,9.61-2.41,4.74-1.76,9.45-3.6,14.51-5.53-1.84-.77-3.37-1.42-4.92-2-3.76-1.52-7.56-3-11.29-4.58a12.5,12.5,0,0,0-6.38-1.2,3.74,3.74,0,0,1-3.66-1.43c-.4-.52-1-.9-1.44-1.39A1.51,1.51,0,0,0,47,60.79a3.38,3.38,0,0,1-3.46-1.2c-3-3.1-6-6.15-9-9.22-.2-.21-.42-.39-.79-.74-1.1,2.57-2.2,5-3.18,7.53-.13.34.21,1,.5,1.36,1.95,2.6,4,5.14,5.92,7.75a6.25,6.25,0,0,1,1.13,2.28c1,4.52,2,9,2.94,13.59a3.84,3.84,0,0,1-1.91,4.52,3.7,3.7,0,0,1-4.57-.84,5.06,5.06,0,0,1-1-2c-.86-3.73-1.58-7.49-2.5-11.19a11.63,11.63,0,0,0-1.66-3.55,29.25,29.25,0,0,0-3.87-4.6c0,1.54.1,3.08,0,4.61a8.36,8.36,0,0,1-.79,3.13c-2.15,4-4.42,8-6.65,12-1.2,2.16-3.33,2.89-5.31,1.85a3.79,3.79,0,0,1-1.43-5.42c1.89-3.54,3.9-7,5.76-10.58a6.89,6.89,0,0,0,.72-2.83c.14-3.58.06-7.17.29-10.74a12.3,12.3,0,0,1,1.23-4.23c1.63-3.56,3.4-7.06,5.13-10.58,2-4,5.78-4.83,9-1.69,5.08,5,10,10.11,15,15.21a3.62,3.62,0,0,1,.92,1.58c.65,2.52,1.65,3.37,4.22,3.37h55.24c.47,0,1.11-.13,1.39.12a3.72,3.72,0,0,1,1.36,1.9A1.63,1.63,0,0,1,110,64.07a1.55,1.55,0,0,1-.43,0c-3.71-.5-7,.77-10.35,2.18C94.73,68.19,90.14,70,85.3,71.89Zm10.87-7.48-.07-.22H65.52c.15.17.2.28.27.31,4.8,1.88,9.6,3.78,14.42,5.61a2.48,2.48,0,0,0,1.63-.1c2.86-1.07,5.7-2.2,8.54-3.32ZM65.3,79.5v.21H96.45c-5-2.19-10.07-4.17-15.14-6.12a1.71,1.71,0,0,0-1.09.07C75.24,75.59,70.27,77.55,65.3,79.5Z"/><path class="cls-1" d="M107.8,58H63.74c.12-2.14.12-4.19.39-6.2a4.11,4.11,0,0,1,3.71-3.63A16,16,0,0,1,70.69,48q15.12,0,30.23,0a14.05,14.05,0,0,1,1.72.07c3.48.42,4.9,1.85,5.14,5.35C107.89,54.88,107.8,56.4,107.8,58Z"/><path class="cls-1" d="M82.4,21.88c2.59-2.39,5.41-3.11,8.56-1.4a6.7,6.7,0,0,1,3.11,7.64,1.3,1.3,0,0,1-1.5,1.13c-2.1-.07-4.2.05-6.3-.05-1.27-.07-2.13.2-2.42,1.54,0,.21-.23.39-.45.73L80.72,23c-.8,1.9-1.5,3.43-2.06,5a1.53,1.53,0,0,1-1.77,1.22,35,35,0,0,0-4.58,0c-1.09.08-1.42-.46-1.63-1.33a6.72,6.72,0,0,1,10.61-7C81.63,21.21,82,21.5,82.4,21.88Z"/><path class="cls-1" d="M37.43,38.73a6.3,6.3,0,0,1-6.32-6.27,6.28,6.28,0,0,1,12.56-.07A6.27,6.27,0,0,1,37.43,38.73Z"/><path class="cls-1" d="M62.4,52.64a5.48,5.48,0,0,1-10.95,0,5.48,5.48,0,1,1,10.95,0Z"/><path class="cls-1" d="M82.2,40.52l-9.15-9.19h4.36c1.26,0,2.73.4,2.8-1.92l.36.32,2.55,8c.87-2,1.67-3.65,2.36-5.38a1.39,1.39,0,0,1,1.58-1c1.52.06,3,0,4.55,0Z"/><path class="cls-1" d="M102.8,82.71a2.25,2.25,0,1,1-2.23,2.21A2.33,2.33,0,0,1,102.8,82.71Z"/><path class="cls-1" d="M60.65,85.05a2.23,2.23,0,0,1-2.21,2.16,2.2,2.2,0,0,1-2.19-2.32,2.2,2.2,0,1,1,4.4.16Z"/></svg>