<svg id="Layer_1" data-name="Layer 1" xmlns="http://www.w3.org/2000/svg" viewBox="0 0 122.42 106.75"><defs><style>.cls-1{fill:#15346b;}</style></defs><path class="cls-1" d="M42.84,77.25c-3.29,6.29-6,11.75-9,17.1-2.39,4.37-6.31,5.77-10,3.85-3.49-1.81-4-5.41-2.66-10.18,2.61-9.3,4.7-18.74,7-28.13a14.61,14.61,0,0,0,0-3c-4.44.72-8.62,1.36-12.79,2.08-3.23.56-5.9-.11-6.91-3.54s.65-5.49,3.74-6.84c7.61-3.32,15.07-7,22.79-10.06,10.6-4.18,16.72-12.08,20.05-22.57.42-1.32.7-2.68,1.11-4,.95-3.09,3.09-4.52,6.28-4.18a5.32,5.32,0,0,1,4.87,6.08c-.28,3.24-.54,6.66-1.75,9.62-2.8,6.83-6.21,13.4-9.25,20.13A12,12,0,0,0,55,48.81C55.73,62.89,56.65,77,57.54,91c.19,3-.41,5.54-3.21,7.11-4.12,2.31-8.89-.08-9.59-4.94S43.54,83.25,42.84,77.25Z"/><path class="cls-1" d="M79.94,77.29c-.68,5.75-1.17,10.6-1.85,15.41-.6,4.32-3.26,6.57-7,6.23s-6-3-5.81-7.39c.75-13.83,1.53-27.66,2.57-41.46.24-3.14-.31-5.66-2.33-8-1.75-2-1.87-3.87-.61-6.44,2-4.15,3.39-8.63,5.13-13.24.6.92,1.19,1.76,1.72,2.65A30.34,30.34,0,0,0,86.22,37.81c7.87,3.35,15.67,6.88,23.47,10.4,1.34.61,3.13,1.32,3.64,2.46.74,1.66,1.31,4.32.48,5.51a7.4,7.4,0,0,1-5.51,2.76c-4.47-.21-8.89-1.29-14.36-2.19,1.39,7.21,2.48,13.85,4,20.38a102,102,0,0,0,3.8,11.43c1.55,4.27.41,8.13-3,9.76s-7.44.33-9.57-3.52C86.11,89.32,83.3,83.72,79.94,77.29Z"/><path class="cls-1" d="M78,22.15c-.35-4.49,1.11-8,5.18-10.15a9.17,9.17,0,0,1,9.69.52c6.24,4,6.1,15.67-.24,19.53a9,9,0,0,1-9.69.24C79,30,77.61,26.47,78,22.15Z"/><path class="cls-1" d="M44.76,22.72c.31,4.5-1.48,8.1-6,10.06a9.22,9.22,0,0,1-10.44-2.14c-3.82-4-3.5-8.83-2.15-13.48,1.1-3.79,4.2-5.89,8.25-6.17C40.79,10.54,44.78,15,44.76,22.72Z"/></svg>